<svg width="65" height="46" viewBox="0 0 65 46" fill="none" xmlns="http://www.w3.org/2000/svg">
<path fill-rule="evenodd" clip-rule="evenodd" d="M5.56321 1C6.1051 1 6.54439 1.44093 6.54439 1.98486L6.54439 13.7264C6.54439 14.2704 6.1051 14.7113 5.56321 14.7113C5.02132 14.7113 4.58203 14.2704 4.58203 13.7264L4.58203 1.98486C4.58203 1.44093 5.02132 1 5.56321 1Z" fill="#CDA580" stroke="#CDA580" stroke-width="0.5" stroke-miterlimit="10" stroke-linecap="round"/>
<path fill-rule="evenodd" clip-rule="evenodd" d="M15.7839 4.39291C10.6811 4.39291 6.54439 8.54512 6.54439 13.6671C6.54439 18.7891 10.6811 22.9413 15.7839 22.9413C20.8868 22.9413 25.0235 18.7891 25.0235 13.6671C25.0235 8.54512 20.8868 4.39291 15.7839 4.39291ZM4.58203 13.6671C4.58203 7.45727 9.5973 2.4232 15.7839 2.4232C21.9706 2.4232 26.9859 7.45727 26.9859 13.6671C26.9859 19.877 21.9706 24.911 15.7839 24.911C9.5973 24.911 4.58203 19.877 4.58203 13.6671Z" fill="#CDA580" stroke="#CDA580" stroke-width="0.5"/>
<path fill-rule="evenodd" clip-rule="evenodd" d="M26.5221 24.674C26.7232 25.1712 26.484 25.7384 25.9877 25.9409L15.1998 30.3426C14.7035 30.5451 14.1382 30.3062 13.937 29.809C13.7359 29.3119 13.9751 28.7447 14.4714 28.5422L25.2593 24.1405C25.7556 23.938 26.3209 24.1768 26.5221 24.674Z" fill="#CDA580" stroke="#CDA580" stroke-width="0.5" stroke-miterlimit="10" stroke-linecap="round"/>
<path fill-rule="evenodd" clip-rule="evenodd" d="M7.85708 21.6216C7.40426 21.2689 6.75155 21.3517 6.39922 21.8066C3.57617 25.4513 3.00401 30.5736 5.35714 34.8742C8.51446 40.6445 15.7408 42.7465 21.4977 39.5692C26.8431 36.619 29.0413 30.1559 26.8018 24.627C26.5859 24.0941 25.98 23.8383 25.4484 24.0558C24.9168 24.2733 24.6609 24.8816 24.8768 25.4146C26.7242 29.9754 24.9086 35.3093 20.4986 37.7432C15.7478 40.3653 9.78439 38.6306 7.17887 33.8688C5.23841 30.3224 5.70673 26.095 8.03901 23.0839C8.39135 22.629 8.30989 21.9743 7.85708 21.6216Z" fill="#CDA580" stroke="#CDA580" stroke-width="0.5" stroke-linecap="round"/>
<path d="M57.0675 20.0153C58.2427 20.0153 59.1888 19.5855 59.9059 18.7258C60.6428 17.8461 61.0113 16.7065 61.0113 15.307C61.0113 13.9075 60.6428 12.7779 59.9059 11.9182C59.1888 11.0585 58.2427 10.6286 57.0675 10.6286C55.8923 10.6286 54.9363 11.0585 54.1993 11.9182C53.4822 12.7779 53.1237 13.9075 53.1237 15.307C53.1237 16.7065 53.4822 17.8461 54.1993 18.7258C54.9363 19.5855 55.8923 20.0153 57.0675 20.0153ZM57.0675 8.1695C58.3821 8.1695 59.5473 8.47939 60.5632 9.09917C61.5989 9.69896 62.3956 10.5387 62.9534 11.6183C63.531 12.6979 63.8198 13.9275 63.8198 15.307C63.8198 16.6865 63.531 17.9261 62.9534 19.0257C62.3757 20.1053 61.579 20.955 60.5632 21.5748C59.5473 22.1746 58.3821 22.4745 57.0675 22.4745C55.7529 22.4745 54.5777 22.1746 53.542 21.5748C52.5261 20.955 51.7294 20.1053 51.1518 19.0257C50.5742 17.9261 50.2853 16.6865 50.2853 15.307C50.2853 13.9275 50.5742 12.6979 51.1518 11.6183C51.7294 10.5387 52.5261 9.69896 53.542 9.09917C54.5777 8.47939 55.7529 8.1695 57.0675 8.1695Z" fill="#CDA580"/>
<path d="M46.4452 1.00202C47.229 1.00202 47.8644 1.63741 47.8644 2.4212V20.8753C47.8644 21.6591 47.229 22.2945 46.4452 22.2945C45.6614 22.2945 45.0261 21.6591 45.0261 20.8753V2.4212C45.0261 1.63741 45.6614 1.00202 46.4452 1.00202Z" fill="#CDA580"/>
<path d="M36.0588 22.4145C34.7442 22.4145 33.569 22.1146 32.5332 21.5148C31.5174 20.915 30.7207 20.0753 30.1431 18.9957C29.5654 17.9161 29.2766 16.6865 29.2766 15.307C29.2766 13.9275 29.5654 12.6979 30.1431 11.6183C30.7207 10.5387 31.5174 9.69896 32.5332 9.09917C33.569 8.47939 34.7442 8.1695 36.0588 8.1695C37.3535 8.1695 38.4291 8.43941 39.2855 8.97922C40.142 9.51903 40.7595 10.0788 41.1379 10.6586C41.5363 11.2384 41.7853 11.6883 41.8849 12.0081C42.3032 13.0278 42.5123 14.1574 42.5123 15.397C42.5123 15.6769 42.5023 15.9068 42.4824 16.0867C42.4578 16.2847 42.2908 16.4466 42.0912 16.4466H32.115C32.2942 17.4662 32.7523 18.3059 33.4893 18.9657C34.2462 19.6255 35.1027 19.9553 36.0588 19.9553C37.1543 19.9553 37.9909 19.7454 38.5685 19.3256C38.7365 19.2019 38.8904 19.079 39.0301 18.9569C39.5476 18.5044 40.304 18.2676 40.9233 18.566C41.5592 18.8724 41.8459 19.643 41.394 20.1852C41.0076 20.6488 40.5139 21.072 39.913 21.4548C38.8971 22.0946 37.6124 22.4145 36.0588 22.4145ZM39.7636 14.1374C39.6242 13.0778 39.2557 12.2281 38.6581 11.5883C38.0606 10.9485 37.1941 10.6286 36.0588 10.6286C35.0629 10.6286 34.1964 10.9585 33.4594 11.6183C32.7424 12.2581 32.2942 13.0978 32.115 14.1374H39.7636Z" fill="#CDA580"/>
<path d="M36.0588 41.245C34.7442 41.245 33.569 40.9451 32.5332 40.3453C31.5174 39.7455 30.7207 38.9058 30.1431 37.8262C29.5654 36.7466 29.2766 35.517 29.2766 34.1375C29.2766 32.758 29.5654 31.5284 30.1431 30.4488C30.7207 29.3692 31.5174 28.5295 32.5332 27.9297C33.569 27.3099 34.7442 27 36.0588 27C37.3535 27 38.4291 27.2699 39.2855 27.8097C40.142 28.3495 40.7595 28.9093 41.1379 29.4891C41.5363 30.0689 41.7853 30.5188 41.8849 30.8386C42.3032 31.8583 42.5123 32.9879 42.5123 34.2275C42.5123 34.5074 42.5023 34.7373 42.4824 34.9172C42.4578 35.1152 42.2908 35.2771 42.0912 35.2771H32.115C32.2942 36.2967 32.7523 37.1364 33.4893 37.7962C34.2462 38.456 35.1027 38.7858 36.0588 38.7858C37.1543 38.7858 37.9909 38.5759 38.5685 38.1561C38.7365 38.0324 38.8904 37.9095 39.0301 37.7874C39.5476 37.3349 40.304 37.0981 40.9233 37.3965C41.5592 37.7029 41.8459 38.4735 41.394 39.0157C41.0076 39.4793 40.5139 39.9025 39.913 40.2853C38.8971 40.9251 37.6124 41.245 36.0588 41.245ZM39.7636 32.9679C39.6242 31.9083 39.2557 31.0586 38.6581 30.4188C38.0606 29.779 37.1941 29.4591 36.0588 29.4591C35.0629 29.4591 34.1964 29.789 33.4594 30.4488C32.7424 31.0886 32.2942 31.9283 32.115 32.9679H39.7636Z" fill="#CDA580"/>
<path d="M61.7802 33.2393C61.7802 32.3093 61.5301 31.556 61.0297 30.9794C60.5479 30.3842 59.9179 30.0866 59.1396 30.0866C58.2501 30.0866 57.5274 30.3749 56.9715 30.9515C56.4156 31.5095 56.1376 32.2163 56.1376 33.0719V39.5915C56.1376 40.3207 55.5465 40.9119 54.8173 40.9119C54.0881 40.9119 53.497 40.3207 53.497 39.5915V33.2393C53.497 32.3093 53.2561 31.556 52.7743 30.9794C52.2925 30.3842 51.6717 30.0866 50.912 30.0866C50.041 30.0866 49.3183 30.4121 48.7439 31.0631C48.1694 31.7141 47.8822 32.5139 47.8822 33.4625V39.5915C47.8822 40.3207 47.2911 40.9119 46.5619 40.9119C45.8327 40.9119 45.2416 40.3207 45.2416 39.5915V29.0633C45.2416 28.3341 45.8327 27.7429 46.5619 27.7429C47.2911 27.7429 47.8822 28.3341 47.8822 29.0633V29.5844C48.2899 29.045 48.7809 28.6079 49.3554 28.273C49.9298 27.9382 50.5136 27.7708 51.1065 27.7708C51.8848 27.7708 52.6353 27.994 53.358 28.4404C54.0992 28.8869 54.6552 29.4635 55.0258 30.1703C55.4705 29.4635 56.0913 28.8869 56.8881 28.4404C57.6849 27.994 58.4818 27.7708 59.2786 27.7708C60.2792 27.7708 61.1687 28.0033 61.947 28.4683C62.7253 28.9148 63.3275 29.5472 63.7537 30.3656C64.1985 31.1654 64.4208 32.0768 64.4208 33.0998V39.5915C64.4208 40.3207 63.8297 40.9119 63.1005 40.9119C62.3713 40.9119 61.7802 40.3207 61.7802 39.5915V33.2393Z" fill="#CDA580"/>
</svg>
