<svg width="110" height="17" viewBox="0 0 110 17" fill="none" xmlns="http://www.w3.org/2000/svg">
<path d="M1.61035 0.610001C1.94748 0.610001 2.2207 0.886949 2.2207 1.22816V4.56898C3.47671 2.71764 5.58225 1.50268 7.96875 1.50258C11.8176 1.50258 14.9384 4.66074 14.9385 8.55629C14.9385 10.2285 14.3611 11.7633 13.4004 12.9723C13.4041 12.9751 13.4085 12.9773 13.4121 12.9801C15.2753 14.4404 17.8969 14.7252 20.1016 13.4967C23.062 11.847 24.1516 8.09174 22.5352 5.10902C21.1269 2.51079 18.1288 1.3553 15.4229 2.19203L17.9336 8.45766C18.0585 8.7699 17.908 9.12669 17.5977 9.25453C17.2872 9.38227 16.9337 9.23279 16.8086 8.92055L14.0879 2.13148C14.0762 2.1024 14.0695 2.07225 14.0625 2.04262C14.06 2.03691 14.056 2.03183 14.0537 2.02602C13.9199 1.6921 14.08 1.31047 14.4111 1.17348C17.8467 -0.247514 21.8522 1.12123 23.6709 4.47719C25.6293 8.09151 24.3089 12.6423 20.7217 14.6413C18.0481 16.131 14.8705 15.782 12.6152 14.0143C12.5744 13.9822 12.5398 13.945 12.5088 13.9059C11.2891 14.9672 9.70338 15.61 7.96875 15.61C4.13573 15.6098 1.02635 12.4777 1.00098 8.60414C1.00092 8.60064 1 8.59692 1 8.5934V1.22816C1 0.886972 1.27326 0.610037 1.61035 0.610001ZM7.96875 2.73891C4.79428 2.73907 2.22076 5.34327 2.2207 8.55629C2.2207 11.7694 4.79424 14.3745 7.96875 14.3746C11.1434 14.3746 13.7168 11.7695 13.7168 8.55629C13.7167 5.34318 11.1434 2.73891 7.96875 2.73891Z" fill="#CDA580"/>
<path d="M1.61035 0.610001V0.360001H1.61032L1.61035 0.610001ZM2.2207 1.22816H2.4707H2.2207ZM2.2207 4.56898H1.9707V5.38278L2.42759 4.70934L2.2207 4.56898ZM7.96875 1.50258V1.25258H7.96874L7.96875 1.50258ZM14.9385 8.55629H15.1885V8.55629L14.9385 8.55629ZM13.4004 12.9723L13.2047 12.8168L13.0447 13.018L13.2504 13.1723L13.4004 12.9723ZM13.4121 12.9801L13.2579 13.1769L13.2579 13.1769L13.4121 12.9801ZM20.1016 13.4967L20.2233 13.7151L20.2233 13.7151L20.1016 13.4967ZM22.5352 5.10902L22.755 4.98991L22.7549 4.98989L22.5352 5.10902ZM15.4229 2.19203L15.349 1.95319L15.0899 2.0333L15.1908 2.28502L15.4229 2.19203ZM17.9336 8.45766L18.1657 8.36478L18.1657 8.36467L17.9336 8.45766ZM17.5977 9.25453L17.6928 9.48573L17.6929 9.48569L17.5977 9.25453ZM16.8086 8.92055L16.5765 9.01355L16.5765 9.01355L16.8086 8.92055ZM14.0879 2.13148L14.32 2.03849L14.3199 2.03848L14.0879 2.13148ZM14.0625 2.04262L14.3059 1.98536L14.3007 1.96363L14.2919 1.94316L14.0625 2.04262ZM14.0537 2.02602L13.8216 2.11898L13.8216 2.11898L14.0537 2.02602ZM14.4111 1.17348L14.3156 0.942459L14.3156 0.942462L14.4111 1.17348ZM23.6709 4.47719L23.8907 4.35809L23.8907 4.35807L23.6709 4.47719ZM20.7217 14.6413L20.8434 14.8596L20.8434 14.8596L20.7217 14.6413ZM12.6152 14.0143L12.4609 14.2109L12.461 14.2111L12.6152 14.0143ZM12.5088 13.9059L12.7048 13.7507L12.5422 13.5454L12.3447 13.7173L12.5088 13.9059ZM7.96875 15.61L7.96874 15.86H7.96875V15.61ZM1.00098 8.60414L1.25098 8.6025L1.25094 8.60001L1.00098 8.60414ZM1 8.5934H0.75H1ZM1 1.22816H1.25H1ZM7.96875 2.73891V2.48891H7.96874L7.96875 2.73891ZM2.2207 8.55629L1.9707 8.55628V8.55629H2.2207ZM7.96875 14.3746L7.96874 14.6246H7.96875V14.3746ZM13.7168 8.55629H13.9668V8.55628L13.7168 8.55629ZM1.61035 0.610001V0.860001C1.80636 0.860001 1.9707 1.02195 1.9707 1.22816H2.2207H2.4707C2.4707 0.751945 2.08859 0.360001 1.61035 0.360001V0.610001ZM2.2207 1.22816H1.9707V4.56898H2.2207H2.4707V1.22816H2.2207ZM2.2207 4.56898L2.42759 4.70934C3.63958 2.92286 5.66951 1.75267 7.96876 1.75258L7.96875 1.50258L7.96874 1.25258C5.49499 1.25268 3.31384 2.51241 2.01382 4.42863L2.2207 4.56898ZM7.96875 1.50258V1.75258C11.6767 1.75258 14.6884 4.79599 14.6885 8.55629L14.9385 8.55629L15.1885 8.55629C15.1884 4.5255 11.9585 1.25258 7.96875 1.25258V1.50258ZM14.9385 8.55629H14.6885C14.6885 10.17 14.1315 11.6504 13.2047 12.8168L13.4004 12.9723L13.5961 13.1278C14.5907 11.8763 15.1885 10.2871 15.1885 8.55629H14.9385ZM13.4004 12.9723L13.2504 13.1723C13.2575 13.1776 13.2636 13.1817 13.2674 13.1841C13.2708 13.1864 13.2743 13.1885 13.2744 13.1885C13.2754 13.1892 13.2736 13.1881 13.2712 13.1865C13.2686 13.1848 13.2638 13.1815 13.2579 13.1769L13.4121 12.9801L13.5663 12.7834C13.5586 12.7773 13.5519 12.7727 13.5473 12.7697C13.543 12.7668 13.5392 12.7644 13.5382 12.7638C13.5362 12.7626 13.5377 12.7635 13.5391 12.7644C13.541 12.7656 13.5452 12.7684 13.5504 12.7723L13.4004 12.9723ZM13.4121 12.9801L13.2579 13.1769C15.1979 14.6974 17.928 14.9941 20.2233 13.7151L20.1016 13.4967L19.9799 13.2783C17.8658 14.4564 15.3527 14.1835 13.5663 12.7834L13.4121 12.9801ZM20.1016 13.4967L20.2233 13.7151C23.3035 11.9987 24.4365 8.0928 22.755 4.98991L22.5352 5.10902L22.3154 5.22814C23.8667 8.09068 22.8205 11.6954 19.9799 13.2783L20.1016 13.4967ZM22.5352 5.10902L22.7549 4.98989C21.289 2.28525 18.1671 1.08177 15.349 1.95319L15.4229 2.19203L15.4967 2.43087C18.0905 1.62883 20.9647 2.73632 22.3154 5.22815L22.5352 5.10902ZM15.4229 2.19203L15.1908 2.28502L17.7015 8.55065L17.9336 8.45766L18.1657 8.36467L15.6549 2.09904L15.4229 2.19203ZM17.9336 8.45766L17.7015 8.55054C17.7756 8.7358 17.6858 8.94787 17.5024 9.02337L17.5977 9.25453L17.6929 9.48569C18.1303 9.30552 18.3415 8.80399 18.1657 8.36478L17.9336 8.45766ZM17.5977 9.25453L17.5025 9.02334C17.3209 9.09807 17.1142 9.01109 17.0406 8.82754L16.8086 8.92055L16.5765 9.01355C16.7533 9.4545 17.2535 9.66646 17.6928 9.48573L17.5977 9.25453ZM16.8086 8.92055L17.0407 8.82755L14.32 2.03849L14.0879 2.13148L13.8558 2.22448L16.5765 9.01355L16.8086 8.92055ZM14.0879 2.13148L14.3199 2.03848C14.3167 2.03044 14.3141 2.02044 14.3059 1.98536L14.0625 2.04262L13.8191 2.09987C13.8248 2.12407 13.8357 2.17436 13.8558 2.22449L14.0879 2.13148ZM14.0625 2.04262L14.2919 1.94316C14.287 1.93192 14.2822 1.92298 14.2791 1.91738C14.2776 1.91452 14.2762 1.91212 14.2753 1.91054C14.2745 1.90916 14.2735 1.9076 14.2734 1.90744C14.2726 1.90609 14.2742 1.9087 14.2762 1.91234C14.2783 1.91632 14.282 1.92352 14.2858 1.93305L14.0537 2.02602L13.8216 2.11898C13.8266 2.13143 13.8317 2.14144 13.8353 2.14818C13.8387 2.15459 13.8419 2.15992 13.8427 2.16127C13.8442 2.16393 13.8429 2.16179 13.8417 2.15949C13.8401 2.15663 13.8368 2.15046 13.8331 2.14208L14.0625 2.04262ZM14.0537 2.02602L14.2858 1.93305C14.2026 1.72551 14.3029 1.48881 14.5067 1.40449L14.4111 1.17348L14.3156 0.942462C13.8571 1.13213 13.6372 1.65868 13.8216 2.11898L14.0537 2.02602ZM14.4111 1.17348L14.5067 1.4045C17.8249 0.0320213 21.6939 1.35379 23.4511 4.5963L23.6709 4.47719L23.8907 4.35807C22.0105 0.888681 17.8684 -0.527049 14.3156 0.942459L14.4111 1.17348ZM23.6709 4.47719L23.4511 4.59629C25.3444 8.09044 24.0674 12.4907 20.6 14.4229L20.7217 14.6413L20.8434 14.8596C24.5504 12.7939 25.9142 8.09258 23.8907 4.35809L23.6709 4.47719ZM20.7217 14.6413L20.6 14.4229C18.0171 15.8621 14.948 15.5252 12.7695 13.8175L12.6152 14.0143L12.461 14.2111C14.7929 16.0389 18.079 16.4 20.8434 14.8596L20.7217 14.6413ZM12.6152 14.0143L12.7696 13.8176C12.7486 13.8011 12.7276 13.7795 12.7048 13.7507L12.5088 13.9059L12.3128 14.0611C12.3519 14.1105 12.4002 14.1633 12.4609 14.2109L12.6152 14.0143ZM12.5088 13.9059L12.3447 13.7173C11.1684 14.7409 9.6403 15.36 7.96875 15.36V15.61V15.86C9.76646 15.86 11.4098 15.1936 12.6729 14.0945L12.5088 13.9059ZM7.96875 15.61L7.96876 15.36C4.2761 15.3598 1.27546 12.3416 1.25097 8.6025L1.00098 8.60414L0.750982 8.60578C0.777233 12.6138 3.99535 15.8598 7.96874 15.86L7.96875 15.61ZM1.00098 8.60414L1.25094 8.60001C1.25077 8.58927 1.24997 8.58053 1.24943 8.57534C1.24915 8.57265 1.24887 8.57041 1.24869 8.56897C1.24853 8.56768 1.24836 8.56637 1.24835 8.5663C1.2482 8.56516 1.24861 8.56813 1.24898 8.57196C1.24938 8.57607 1.25 8.58369 1.25 8.5934H1H0.75C0.75 8.60487 0.750737 8.61427 0.75131 8.62018C0.751855 8.6258 0.752497 8.63058 0.752585 8.63125C0.752844 8.63323 0.752482 8.63059 0.75217 8.62762C0.751813 8.62422 0.751159 8.61726 0.751011 8.60827L1.00098 8.60414ZM1 8.5934H1.25V1.22816H1H0.75V8.5934H1ZM1 1.22816H1.25C1.25 1.022 1.41435 0.860022 1.61038 0.860001L1.61035 0.610001L1.61032 0.360001C1.13216 0.360053 0.75 0.75194 0.75 1.22816H1ZM7.96875 2.73891L7.96874 2.48891C4.6534 2.48907 1.97076 5.20802 1.9707 8.55628L2.2207 8.55629L2.4707 8.55629C2.47076 5.47853 4.93515 2.98906 7.96876 2.98891L7.96875 2.73891ZM2.2207 8.55629H1.9707C1.9707 11.9046 4.65331 14.6245 7.96874 14.6246L7.96875 14.3746L7.96876 14.1246C4.93517 14.1245 2.4707 11.6342 2.4707 8.55629H2.2207ZM7.96875 14.3746V14.6246C11.2843 14.6246 13.9668 11.9046 13.9668 8.55629H13.7168H13.4668C13.4668 11.6343 11.0025 14.1246 7.96875 14.1246V14.3746ZM13.7168 8.55629L13.9668 8.55628C13.9667 5.20794 11.2842 2.48891 7.96875 2.48891V2.73891V2.98891C11.0025 2.98891 13.4667 5.47842 13.4668 8.55629L13.7168 8.55629Z" fill="#CDA580"/>
<path d="M95.2285 15.94C94.6762 15.94 94.2285 15.4923 94.2285 14.94V5.92C94.2285 5.36772 94.6762 4.92 95.2285 4.92C95.7316 4.92 96.1564 5.2938 96.2204 5.79284L96.3085 6.48H96.3485C96.8285 5.97334 97.3418 5.54667 97.8885 5.2C98.4485 4.84 99.0751 4.66 99.7685 4.66C100.582 4.66 101.228 4.84 101.708 5.2C102.188 5.54667 102.548 6.04 102.788 6.68C103.335 6.09334 103.895 5.61334 104.468 5.24C105.055 4.85334 105.688 4.66 106.368 4.66C107.515 4.66 108.362 5.04 108.908 5.8C109.468 6.54667 109.748 7.62 109.748 9.02V14.94C109.748 15.4923 109.301 15.94 108.748 15.94H108.428C107.876 15.94 107.428 15.4923 107.428 14.94V9.3C107.428 8.35334 107.282 7.68 106.988 7.28C106.695 6.86667 106.235 6.66 105.608 6.66C105.235 6.66 104.842 6.78 104.428 7.02C104.028 7.26 103.595 7.63334 103.128 8.14V14.94C103.128 15.4923 102.681 15.94 102.128 15.94H101.828C101.276 15.94 100.828 15.4923 100.828 14.94V9.3C100.828 8.35334 100.682 7.68 100.388 7.28C100.095 6.86667 99.6285 6.66 98.9885 6.66C98.6285 6.66 98.2418 6.78 97.8285 7.02C97.4151 7.26 96.9818 7.63334 96.5285 8.14V14.94C96.5285 15.4923 96.0807 15.94 95.5285 15.94H95.2285Z" fill="#CDA580"/>
<path d="M88.38 16.22C87.38 16.22 86.4733 15.9933 85.66 15.54C84.8467 15.0733 84.2 14.4133 83.72 13.56C83.24 12.6933 83 11.6533 83 10.44C83 9.54667 83.14 8.74667 83.42 8.04C83.7 7.32 84.08 6.71334 84.56 6.22C85.04 5.71334 85.58 5.32667 86.18 5.06C86.78 4.79334 87.3933 4.66 88.02 4.66C88.9933 4.66 89.8133 4.88 90.48 5.32C91.1467 5.74667 91.6533 6.35334 92 7.14C92.3467 7.91334 92.52 8.82 92.52 9.86C92.52 10.0867 92.5067 10.3067 92.48 10.52C92.4593 10.8304 92.1842 11.04 91.873 11.04H85.26C85.3267 11.7333 85.5067 12.3333 85.8 12.84C86.1067 13.3333 86.5 13.72 86.98 14C87.4733 14.2667 88.0333 14.4 88.66 14.4C89.1533 14.4 89.6133 14.3267 90.04 14.18C90.1932 14.1273 90.3447 14.0678 90.4944 14.0014C90.9363 13.8054 91.4765 13.9386 91.7088 14.3625C91.9185 14.7452 91.8009 15.229 91.4135 15.4299C91.0893 15.598 90.7448 15.748 90.38 15.88C89.7667 16.1067 89.1 16.22 88.38 16.22ZM85.24 9.44H90.52C90.52 8.50667 90.3067 7.78 89.88 7.26C89.4667 6.74 88.86 6.48 88.06 6.48C87.6067 6.48 87.18 6.59334 86.78 6.82C86.38 7.04667 86.04 7.38 85.76 7.82C85.4933 8.26 85.32 8.8 85.24 9.44Z" fill="#CDA580"/>
<path d="M76.1211 16.22C74.8144 16.22 73.6411 15.92 72.6011 15.32C71.5744 14.72 70.7611 13.8533 70.1611 12.72C69.5744 11.5867 69.2811 10.2133 69.2811 8.6C69.2811 7.4 69.4544 6.32667 69.8011 5.38C70.1611 4.43334 70.6478 3.63334 71.2611 2.98C71.8878 2.31334 72.6144 1.80667 73.4411 1.46C74.2811 1.11334 75.1944 0.940002 76.1811 0.940002C77.2211 0.940002 78.0944 1.13334 78.8011 1.52C79.2092 1.73918 79.5724 1.97121 79.8905 2.21609C80.286 2.5205 80.2996 3.08826 79.9791 3.47081C79.6125 3.90828 78.9539 3.93579 78.4748 3.6256C78.3293 3.53137 78.178 3.44283 78.0211 3.36C77.5411 3.09334 76.9478 2.96 76.2411 2.96C75.3344 2.96 74.5344 3.18667 73.8411 3.64C73.1611 4.09334 72.6278 4.73334 72.2411 5.56C71.8678 6.38667 71.6811 7.38 71.6811 8.54C71.6811 9.7 71.8611 10.7067 72.2211 11.56C72.5811 12.4 73.1078 13.0467 73.8011 13.5C74.4944 13.9533 75.3478 14.18 76.3611 14.18C76.8144 14.18 77.2411 14.12 77.6411 14C78.0544 13.8667 78.3878 13.6867 78.6411 13.46V10.02H76.7011C76.1709 10.02 75.7411 9.5902 75.7411 9.06C75.7411 8.52981 76.1709 8.1 76.7011 8.1H79.7611C80.3134 8.1 80.7611 8.54772 80.7611 9.1V14.0658C80.7611 14.331 80.6589 14.5891 80.4553 14.7592C80.01 15.1313 79.4653 15.4516 78.8211 15.72C78.0211 16.0533 77.1211 16.22 76.1211 16.22Z" fill="#CDA580"/>
<path d="M62.6164 16.22C61.7097 16.22 60.8564 15.9933 60.0564 15.54C59.2697 15.0733 58.6297 14.4133 58.1364 13.56C57.6564 12.6933 57.4164 11.6533 57.4164 10.44C57.4164 9.21334 57.6564 8.17334 58.1364 7.32C58.6297 6.45334 59.2697 5.79334 60.0564 5.34C60.8564 4.88667 61.7097 4.66 62.6164 4.66C63.283 4.66 63.9297 4.79334 64.5564 5.06C65.1831 5.31334 65.7364 5.68667 66.2164 6.18C66.6964 6.67334 67.0764 7.28 67.3564 8C67.6364 8.70667 67.7764 9.52 67.7764 10.44C67.7764 11.6533 67.5297 12.6933 67.0364 13.56C66.5564 14.4133 65.923 15.0733 65.1364 15.54C64.363 15.9933 63.523 16.22 62.6164 16.22ZM62.6164 14.3C63.1897 14.3 63.683 14.14 64.0964 13.82C64.523 13.5 64.8497 13.0533 65.0764 12.48C65.303 11.8933 65.4164 11.2133 65.4164 10.44C65.4164 9.66667 65.303 8.99334 65.0764 8.42C64.8497 7.83334 64.523 7.38 64.0964 7.06C63.683 6.72667 63.1897 6.56 62.6164 6.56C62.0297 6.56 61.523 6.72667 61.0964 7.06C60.683 7.38 60.363 7.83334 60.1364 8.42C59.9097 8.99334 59.7964 9.66667 59.7964 10.44C59.7964 11.2133 59.9097 11.8933 60.1364 12.48C60.363 13.0533 60.683 13.5 61.0964 13.82C61.523 14.14 62.0297 14.3 62.6164 14.3Z" fill="#CDA580"/>
<path d="M55.1194 16.22C54.5594 16.22 54.1127 16.1067 53.7794 15.88C53.446 15.64 53.206 15.3067 53.0594 14.88C52.9127 14.44 52.8394 13.9267 52.8394 13.34V1C52.8394 0.447716 53.2871 0 53.8394 0H54.1394C54.6916 0 55.1394 0.447715 55.1394 1V13.46C55.1394 13.7667 55.1927 13.9867 55.2994 14.12C55.4194 14.24 55.546 14.3 55.6794 14.3C55.7327 14.3 55.786 14.3 55.8394 14.3C55.9711 14.2671 56.0965 14.3663 56.118 14.5003L56.2768 15.4867C56.325 15.7868 56.1574 16.0804 55.8594 16.14C55.6594 16.1933 55.4127 16.22 55.1194 16.22Z" fill="#CDA580"/>
<path d="M46.7112 16.22C45.7112 16.22 44.8046 15.9933 43.9912 15.54C43.1779 15.0733 42.5312 14.4133 42.0512 13.56C41.5712 12.6933 41.3312 11.6533 41.3312 10.44C41.3312 9.54667 41.4712 8.74667 41.7512 8.04C42.0312 7.32 42.4112 6.71334 42.8912 6.22C43.3712 5.71334 43.9112 5.32667 44.5112 5.06C45.1112 4.79334 45.7246 4.66 46.3512 4.66C47.3246 4.66 48.1446 4.88 48.8112 5.32C49.4779 5.74667 49.9846 6.35334 50.3312 7.14C50.6779 7.91334 50.8512 8.82 50.8512 9.86C50.8512 10.0867 50.8379 10.3067 50.8112 10.52C50.7905 10.8304 50.5154 11.04 50.2043 11.04H43.5912C43.6579 11.7333 43.8379 12.3333 44.1312 12.84C44.4379 13.3333 44.8312 13.72 45.3112 14C45.8046 14.2667 46.3646 14.4 46.9912 14.4C47.4846 14.4 47.9446 14.3267 48.3712 14.18C48.5244 14.1273 48.6759 14.0678 48.8257 14.0014C49.2675 13.8054 49.8077 13.9386 50.04 14.3625C50.2497 14.7452 50.1321 15.229 49.7447 15.4299C49.4206 15.598 49.0761 15.748 48.7112 15.88C48.0979 16.1067 47.4312 16.22 46.7112 16.22ZM43.5712 9.44H48.8512C48.8512 8.50667 48.6379 7.78 48.2112 7.26C47.7979 6.74 47.1912 6.48 46.3912 6.48C45.9379 6.48 45.5112 6.59334 45.1112 6.82C44.7112 7.04667 44.3712 7.38 44.0912 7.82C43.8246 8.26 43.6512 8.8 43.5712 9.44Z" fill="#CDA580"/>
<path d="M30.5714 15.94C30.0191 15.94 29.5714 15.4923 29.5714 14.94V2.20001C29.5714 1.64772 30.0191 1.2 30.5714 1.2H34.1514C35.1514 1.2 36.0381 1.32 36.8114 1.56C37.5981 1.8 38.2114 2.18667 38.6514 2.72001C39.1047 3.24001 39.3314 3.94 39.3314 4.82C39.3314 5.3 39.2447 5.75334 39.0714 6.18001C38.9114 6.60667 38.6781 6.98667 38.3714 7.32001C38.0647 7.64001 37.6847 7.87334 37.2314 8.02001V8.12C38.0714 8.29334 38.7647 8.67334 39.3114 9.26C39.8581 9.83334 40.1314 10.62 40.1314 11.62C40.1314 12.5933 39.8847 13.4 39.3914 14.04C38.9114 14.68 38.2447 15.16 37.3914 15.48C36.5514 15.7867 35.5847 15.94 34.4914 15.94H30.5714ZM31.8914 7.36001H33.8714C34.9914 7.36001 35.7981 7.16001 36.2914 6.76C36.7981 6.36 37.0514 5.82001 37.0514 5.14001C37.0514 4.38001 36.7914 3.84001 36.2714 3.52C35.7514 3.18667 34.9714 3.02 33.9314 3.02H31.8914V7.36001ZM31.8914 14.12H34.2314C35.3781 14.12 36.2647 13.9067 36.8914 13.48C37.5314 13.0533 37.8514 12.3933 37.8514 11.5C37.8514 10.6733 37.5381 10.0733 36.9114 9.70001C36.2981 9.31334 35.4047 9.12 34.2314 9.12H31.8914V14.12Z" fill="#CDA580"/>
</svg>
