<svg width="65" height="45" viewBox="0 0 65 45" fill="none" xmlns="http://www.w3.org/2000/svg">
<g id="Group 68">
<g id="Group 67">
<path id="Vector (Stroke)" fill-rule="evenodd" clip-rule="evenodd" d="M5.55833 0.614258C6.10021 0.614258 6.5395 1.05519 6.5395 1.59911L6.5395 13.3407C6.5395 13.8846 6.10022 14.3256 5.55833 14.3256C5.01644 14.3256 4.57715 13.8846 4.57715 13.3407L4.57715 1.59911C4.57715 1.05519 5.01644 0.614258 5.55833 0.614258Z" fill="#CDA580" stroke="#CDA580" stroke-width="0.5" stroke-miterlimit="10" stroke-linecap="round"/>
<path id="Ellipse 18 (Stroke)" fill-rule="evenodd" clip-rule="evenodd" d="M15.7791 4.00719C10.6762 4.00719 6.5395 8.15939 6.5395 13.2814C6.5395 18.4034 10.6762 22.5556 15.7791 22.5556C20.8819 22.5556 25.0186 18.4034 25.0186 13.2814C25.0186 8.15939 20.8819 4.00719 15.7791 4.00719ZM4.57715 13.2814C4.57715 7.07155 9.59242 2.03748 15.7791 2.03748C21.9657 2.03748 26.981 7.07155 26.981 13.2814C26.981 19.4912 21.9657 24.5253 15.7791 24.5253C9.59242 24.5253 4.57715 19.4912 4.57715 13.2814Z" fill="#CDA580" stroke="#CDA580" stroke-width="0.5"/>
</g>
<g id="g">
<path id="Vector (Stroke)_2" fill-rule="evenodd" clip-rule="evenodd" d="M26.5171 24.2883C26.7183 24.7854 26.479 25.3526 25.9828 25.5551L15.1948 29.9569C14.6986 30.1593 14.1332 29.9205 13.9321 29.4233C13.7309 28.9261 13.9702 28.3589 14.4664 28.1564L25.2544 23.7547C25.7506 23.5522 26.316 23.7911 26.5171 24.2883Z" fill="#CDA580" stroke="#CDA580" stroke-width="0.5" stroke-miterlimit="10" stroke-linecap="round"/>
<path id="Ellipse 19 (Stroke)" fill-rule="evenodd" clip-rule="evenodd" d="M7.85201 21.2359C7.39919 20.8832 6.74649 20.966 6.39415 21.4209C3.57111 25.0656 2.99895 30.1879 5.35208 34.4885C8.50939 40.2588 15.7358 42.3608 21.4926 39.1835C26.838 36.2333 29.0363 29.7702 26.7967 24.2413C26.5809 23.7083 25.9749 23.4526 25.4434 23.6701C24.9118 23.8876 24.6558 24.4959 24.8717 25.0289C26.7191 29.5896 24.9035 34.9235 20.4935 37.3575C15.7428 39.9795 9.77932 38.2449 7.1738 33.483C5.23334 29.9367 5.70167 25.7093 8.03395 22.6982C8.38629 22.2433 8.30483 21.5886 7.85201 21.2359Z" fill="#CDA580" stroke="#CDA580" stroke-width="0.5" stroke-linecap="round"/>
</g>
<g id="elo">
<path id="Vector" d="M57.0629 19.6296C58.2381 19.6296 59.1842 19.1997 59.9013 18.34C60.6383 17.4603 61.0068 16.3207 61.0068 14.9212C61.0068 13.5217 60.6383 12.3921 59.9013 11.5324C59.1842 10.6727 58.2381 10.2429 57.0629 10.2429C55.8878 10.2429 54.9317 10.6727 54.1947 11.5324C53.4776 12.3921 53.1191 13.5217 53.1191 14.9212C53.1191 16.3207 53.4776 17.4603 54.1947 18.34C54.9317 19.1997 55.8878 19.6296 57.0629 19.6296ZM57.0629 7.78375C58.3775 7.78375 59.5428 8.09364 60.5586 8.71342C61.5943 9.31321 62.3911 10.1529 62.9488 11.2325C63.5264 12.3122 63.8152 13.5417 63.8152 14.9212C63.8152 16.3007 63.5264 17.5403 62.9488 18.6399C62.3712 19.7195 61.5744 20.5692 60.5586 21.189C59.5428 21.7888 58.3775 22.0887 57.0629 22.0887C55.7483 22.0887 54.5731 21.7888 53.5374 21.189C52.5216 20.5692 51.7248 19.7195 51.1472 18.6399C50.5696 17.5403 50.2808 16.3007 50.2808 14.9212C50.2808 13.5417 50.5696 12.3122 51.1472 11.2325C51.7248 10.1529 52.5216 9.31321 53.5374 8.71342C54.5731 8.09364 55.7483 7.78375 57.0629 7.78375Z" fill="#CDA580"/>
<path id="Vector_2" d="M46.4407 0.616272C47.2244 0.616272 47.8598 1.25166 47.8598 2.03545V20.4896C47.8598 21.2734 47.2244 21.9088 46.4407 21.9088V21.9088C45.6569 21.9088 45.0215 21.2734 45.0215 20.4896V2.03545C45.0215 1.25166 45.6569 0.616272 46.4407 0.616272V0.616272Z" fill="#CDA580"/>
<path id="Vector_3" d="M36.0541 22.0287C34.7395 22.0287 33.5644 21.7288 32.5286 21.129C31.5128 20.5293 30.716 19.6896 30.1384 18.6099C29.5608 17.5303 29.272 16.3007 29.272 14.9212C29.272 13.5417 29.5608 12.3122 30.1384 11.2325C30.716 10.1529 31.5128 9.31321 32.5286 8.71342C33.5644 8.09364 34.7395 7.78375 36.0541 7.78375C37.3488 7.78375 38.4244 8.05366 39.2809 8.59347C40.1374 9.13328 40.7549 9.69308 41.1333 10.2729C41.5317 10.8527 41.7806 11.3025 41.8802 11.6224C42.2985 12.642 42.5077 13.7716 42.5077 15.0112C42.5077 15.2911 42.4977 15.521 42.4778 15.701V15.701C42.4531 15.899 42.2861 16.0608 42.0866 16.0608H32.1103C32.2896 17.0805 32.7477 17.9202 33.4847 18.5799C34.2416 19.2397 35.0981 19.5696 36.0541 19.5696C37.1496 19.5696 37.9862 19.3597 38.5638 18.9398C38.7319 18.8161 38.8857 18.6932 39.0254 18.5711C39.543 18.1187 40.2994 17.8819 40.9187 18.1802V18.1802C41.5546 18.4866 41.8413 19.2572 41.3894 19.7995C41.003 20.2631 40.5093 20.6863 39.9083 21.0691C38.8925 21.7088 37.6078 22.0287 36.0541 22.0287ZM39.7589 13.7516C39.6195 12.692 39.251 11.8423 38.6535 11.2025C38.0559 10.5628 37.1895 10.2429 36.0541 10.2429C35.0582 10.2429 34.1918 10.5728 33.4548 11.2325C32.7378 11.8723 32.2896 12.712 32.1103 13.7516H39.7589Z" fill="#CDA580"/>
</g>
<g id="am">
<path id="Vector_4" d="M61.7755 32.8535C61.7755 31.9235 61.5253 31.1702 61.025 30.5936C60.5432 29.9984 59.9131 29.7008 59.1348 29.7008C58.2454 29.7008 57.5227 29.9891 56.9667 30.5657C56.4108 31.1237 56.1329 31.8305 56.1329 32.6861V39.2058C56.1329 39.935 55.5417 40.5261 54.8126 40.5261V40.5261C54.0834 40.5261 53.4922 39.935 53.4922 39.2058V32.8535C53.4922 31.9235 53.2513 31.1702 52.7695 30.5936C52.2877 29.9984 51.667 29.7008 50.9072 29.7008C50.0363 29.7008 49.3136 30.0263 48.7391 30.6773C48.1647 31.3283 47.8774 32.1281 47.8774 33.0767V39.2058C47.8774 39.935 47.2863 40.5261 46.5571 40.5261V40.5261C45.8279 40.5261 45.2368 39.935 45.2368 39.2058V28.6775C45.2368 27.9483 45.8279 27.3572 46.5571 27.3572V27.3572C47.2863 27.3572 47.8774 27.9483 47.8774 28.6775V29.1986C48.2851 28.6592 48.7762 28.2221 49.3506 27.8873C49.9251 27.5525 50.5088 27.3851 51.1018 27.3851C51.8801 27.3851 52.6306 27.6083 53.3533 28.0547C54.0945 28.5011 54.6504 29.0777 55.021 29.7845C55.4658 29.0777 56.0865 28.5011 56.8834 28.0547C57.6802 27.6083 58.477 27.3851 59.2738 27.3851C60.2745 27.3851 61.1639 27.6176 61.9422 28.0826C62.7205 28.529 63.3228 29.1614 63.749 29.9798C64.1937 30.7796 64.4161 31.691 64.4161 32.714V39.2058C64.4161 39.935 63.825 40.5261 63.0958 40.5261V40.5261C62.3666 40.5261 61.7755 39.935 61.7755 39.2058V32.8535Z" fill="#CDA580"/>
<path id="Vector_5" d="M35.4983 40.6657C34.2938 40.6657 33.219 40.3867 32.2739 39.8287C31.3289 39.2521 30.5877 38.4616 30.0503 37.4572C29.5314 36.4528 29.272 35.3088 29.272 34.0254C29.272 32.7606 29.5314 31.626 30.0503 30.6216C30.5877 29.5986 31.3289 28.8081 32.2739 28.2501C33.219 27.6735 34.2938 27.3852 35.4983 27.3852C36.2025 27.3852 36.8974 27.5619 37.583 27.9153C38.2872 28.2687 39.4175 29.4777 39.4175 29.4777V28.6776C39.4175 27.9484 40.0086 27.3573 40.7378 27.3573V27.3573C41.467 27.3573 42.0581 27.9484 42.0581 28.6776V39.2059C42.0581 39.9351 41.467 40.5262 40.7378 40.5262V40.5262C40.0086 40.5262 39.4175 39.9351 39.4175 39.2059V38.5732C38.8987 39.28 38.2964 39.8101 37.6108 40.1635C36.9251 40.4983 36.221 40.6657 35.4983 40.6657ZM35.6373 38.3779C36.3044 38.3779 36.9251 38.1919 37.4996 37.8199C38.0926 37.4479 38.5651 36.9271 38.9172 36.2574C39.2693 35.5878 39.4453 34.8438 39.4453 34.0254C39.4453 33.207 39.2693 32.4723 38.9172 31.8213C38.5651 31.1517 38.0926 30.6309 37.4996 30.2589C36.9251 29.8683 36.3044 29.673 35.6373 29.673C34.5254 29.673 33.6267 30.0729 32.941 30.8727C32.2554 31.6725 31.9126 32.7234 31.9126 34.0254C31.9126 35.3274 32.2554 36.3783 32.941 37.1782C33.6267 37.978 34.5254 38.3779 35.6373 38.3779Z" fill="#CDA580"/>
</g>
</g>
</svg>
