<svg width="142" height="89" viewBox="0 0 142 89" fill="none" xmlns="http://www.w3.org/2000/svg">
<g id="Union">
<path fill-rule="evenodd" clip-rule="evenodd" d="M74.7813 72.5645C80.4162 65.5751 83.7838 56.7208 83.7838 47.0891C83.7838 24.4946 65.252 6.17821 42.3919 6.17821C28.2202 6.17821 15.7119 13.2175 8.25104 23.9514L8.25104 4.58337C8.25104 2.60431 6.62784 0.999977 4.62552 0.999977C2.6232 0.999977 1 2.60432 1 4.58337L1 47.0762L1 47.0891L1 47.102L1 47.305C1 47.3353 1.00038 47.3655 1.00114 47.3956C1.16782 69.8489 19.6352 88 42.3919 88C52.7803 88 62.275 84.2174 69.5428 77.9697C69.7367 78.2172 69.9648 78.445 70.2261 78.6462C83.6545 88.985 102.504 91.1089 118.312 82.5388C139.521 71.0397 147.207 44.6489 135.479 23.5933C124.589 4.04264 100.796 -4.03155 80.4682 4.11555C78.5088 4.90088 77.5719 7.11324 78.3755 9.05701C78.4641 9.27131 78.5702 9.4734 78.6914 9.66232C78.7069 9.70435 78.7232 9.74624 78.7404 9.78803L94.9659 49.198C95.7123 51.011 97.7955 51.888 99.6188 51.1569C101.442 50.4259 102.315 48.3636 101.569 46.5506L86.5424 10.0535C102.552 5.30162 120.343 12.1073 128.767 27.232C138.446 44.6079 132.103 66.3865 114.6 75.8758C101.565 82.943 86.0088 81.2044 74.9148 72.6629C74.8708 72.629 74.8262 72.5962 74.7813 72.5645ZM8.25104 47.0793L8.25104 47.0891L8.25104 47.0989C8.25642 65.7308 23.5397 80.8332 42.3919 80.8332C61.2473 80.8332 76.5327 65.7254 76.5327 47.0891C76.5327 28.4527 61.2473 13.345 42.3919 13.345C23.5397 13.345 8.25642 28.4474 8.25104 47.0793Z" fill="#CDA580"/>
<path d="M74.7813 72.5645L74.5866 72.4076L74.4192 72.6152L74.6372 72.7688L74.7813 72.5645ZM8.25104 23.9514L8.00104 23.9514L8.00104 24.7491L8.45632 24.0941L8.25104 23.9514ZM8.25104 4.58337L8.00104 4.58337V4.58337L8.25104 4.58337ZM1 4.58337L0.75 4.58337L0.75 4.58337L1 4.58337ZM1 47.0762L1.25 47.0762L1.25 47.0762L1 47.0762ZM1 47.0891L0.75 47.089L0.75 47.0891L1 47.0891ZM1 47.102L1.25 47.102L1.25 47.102L1 47.102ZM1 47.305L1.25 47.305L1 47.305ZM1.00114 47.3956L1.25117 47.3937L1.25106 47.3893L1.00114 47.3956ZM69.5428 77.9697L69.7395 77.8155L69.5782 77.6096L69.3798 77.7801L69.5428 77.9697ZM70.2261 78.6462L70.0736 78.8443L70.0736 78.8443L70.2261 78.6462ZM118.312 82.5388L118.431 82.7585L118.431 82.7585L118.312 82.5388ZM135.479 23.5933L135.26 23.7149L135.26 23.7149L135.479 23.5933ZM80.4682 4.11555L80.5612 4.34761L80.5612 4.34761L80.4682 4.11555ZM78.3755 9.05701L78.1445 9.15253L78.1445 9.15254L78.3755 9.05701ZM78.6914 9.66232L78.926 9.57585L78.9166 9.55026L78.9018 9.52731L78.6914 9.66232ZM78.7404 9.78803L78.5093 9.8832L78.5093 9.88321L78.7404 9.78803ZM94.9659 49.198L95.1971 49.1028L95.1971 49.1028L94.9659 49.198ZM99.6188 51.1569L99.7118 51.389L99.7118 51.389L99.6188 51.1569ZM101.569 46.5506L101.338 46.6458L101.338 46.6458L101.569 46.5506ZM86.5424 10.0535L86.4713 9.81382L86.2058 9.89261L86.3113 10.1487L86.5424 10.0535ZM128.767 27.232L128.986 27.1104L128.986 27.1104L128.767 27.232ZM114.6 75.8758L114.72 76.0956L114.72 76.0956L114.6 75.8758ZM74.9148 72.6629L74.7623 72.861L74.7623 72.861L74.9148 72.6629ZM8.25104 47.0891L8.00104 47.0891L8.00104 47.0891L8.25104 47.0891ZM8.25104 47.0793L8.00104 47.0792L8.00104 47.0792L8.25104 47.0793ZM8.25104 47.0989L8.00104 47.099L8.00104 47.099L8.25104 47.0989ZM83.5338 47.0891C83.5338 56.6614 80.1872 65.4608 74.5866 72.4076L74.9759 72.7214C80.6452 65.6894 84.0338 56.7802 84.0338 47.0891H83.5338ZM42.3919 6.42821C65.1167 6.42821 83.5338 24.6355 83.5338 47.0891H84.0338C84.0338 24.3538 65.3873 5.92821 42.3919 5.92821V6.42821ZM8.45632 24.0941C15.872 13.4252 28.3047 6.42821 42.3919 6.42821V5.92821C28.1356 5.92821 15.5518 13.0098 8.04576 23.8088L8.45632 24.0941ZM8.00104 4.58337L8.00104 23.9514L8.50104 23.9514L8.50104 4.58337L8.00104 4.58337ZM4.62552 1.24998C6.49253 1.24998 8.00104 2.74513 8.00104 4.58337H8.50104C8.50104 2.4635 6.76315 0.749977 4.62552 0.749977V1.24998ZM1.25 4.58337C1.25 2.74513 2.75851 1.24998 4.62552 1.24998V0.749977C2.48789 0.749977 0.75 2.4635 0.75 4.58337H1.25ZM1.25 47.0762L1.25 4.58337L0.75 4.58337L0.750002 47.0762L1.25 47.0762ZM1.25 47.0891L1.25 47.0762L0.750002 47.0762L0.75 47.089L1.25 47.0891ZM1.25 47.102L1.25 47.089L0.75 47.0891L0.750002 47.102L1.25 47.102ZM1.25 47.305L1.25 47.102L0.750002 47.102L0.750002 47.305L1.25 47.305ZM1.25106 47.3893C1.25036 47.3613 1.25 47.3332 1.25 47.305L0.750002 47.305C0.750002 47.3374 0.750408 47.3697 0.751216 47.4018L1.25106 47.3893ZM42.3919 87.75C19.7699 87.75 1.41677 69.7071 1.25113 47.3937L0.751144 47.3974C0.918862 69.9908 19.5005 88.25 42.3919 88.25V87.75ZM69.3798 77.7801C62.1559 83.9901 52.7186 87.75 42.3919 87.75V88.25C52.8421 88.25 62.394 84.4447 69.7057 78.1593L69.3798 77.7801ZM69.346 78.1239C69.5527 78.3878 69.7957 78.6303 70.0736 78.8443L70.3786 78.4482C70.1339 78.2598 69.9207 78.0467 69.7395 77.8155L69.346 78.1239ZM70.0736 78.8443C83.5772 89.241 102.533 91.3777 118.431 82.7585L118.193 82.319C102.476 90.8402 83.7319 88.7291 70.3786 78.4482L70.0736 78.8443ZM118.431 82.7585C139.762 71.1933 147.493 44.6491 135.697 23.4716L135.26 23.7149C146.921 44.6488 139.28 70.8862 118.193 82.319L118.431 82.7585ZM135.697 23.4716C124.745 3.80937 100.817 -4.30969 80.3752 3.88349L80.5612 4.34761C100.774 -3.7534 124.433 4.2759 135.26 23.7149L135.697 23.4716ZM80.3752 3.88349C78.2874 4.72026 77.2873 7.07939 78.1445 9.15253L78.6066 8.96149C77.8564 7.14709 78.7301 5.08149 80.5612 4.34761L80.3752 3.88349ZM78.1445 9.15254C78.2388 9.38068 78.3518 9.59597 78.481 9.79733L78.9018 9.52731C78.7886 9.35083 78.6894 9.16195 78.6066 8.96149L78.1445 9.15254ZM78.4568 9.74878C78.4734 9.79372 78.4909 9.83851 78.5093 9.8832L78.9716 9.69286C78.9556 9.65397 78.9404 9.61498 78.926 9.57585L78.4568 9.74878ZM78.5093 9.88321L94.7348 49.2932L95.1971 49.1028L78.9716 9.69285L78.5093 9.88321ZM94.7348 49.2932C95.5336 51.2334 97.7616 52.1709 99.7118 51.389L99.5258 50.9249C97.8294 51.6051 95.8911 50.7885 95.1971 49.1028L94.7348 49.2932ZM99.7118 51.389C101.664 50.6064 102.599 48.3973 101.8 46.4555L101.338 46.6458C102.031 48.3298 101.22 50.2454 99.5258 50.9249L99.7118 51.389ZM101.8 46.4555L86.7736 9.95831L86.3113 10.1487L101.338 46.6458L101.8 46.4555ZM86.6136 10.2932C102.513 5.57376 120.183 12.3338 128.549 27.3537L128.986 27.1104C120.503 11.8809 102.59 5.02947 86.4713 9.81382L86.6136 10.2932ZM128.549 27.3537C138.159 44.6077 131.862 66.2329 114.481 75.6561L114.72 76.0956C132.344 66.54 138.732 44.608 128.986 27.1104L128.549 27.3537ZM114.481 75.6561C101.536 82.6743 86.0861 80.9484 75.0673 72.4648L74.7623 72.861C85.9315 81.4604 101.594 83.2118 114.72 76.0956L114.481 75.6561ZM75.0673 72.4648C75.0205 72.4288 74.9731 72.3939 74.9253 72.3601L74.6372 72.7688C74.6794 72.7985 74.721 72.8292 74.7623 72.861L75.0673 72.4648ZM8.50104 47.0891L8.50104 47.0793L8.00104 47.0792L8.00104 47.0891L8.50104 47.0891ZM8.50104 47.0989L8.50104 47.0891L8.00104 47.0891L8.00104 47.099L8.50104 47.0989ZM42.3919 80.5832C23.675 80.5832 8.50638 65.5899 8.50104 47.0989L8.00104 47.099C8.00646 65.8716 23.4044 81.0832 42.3919 81.0832V80.5832ZM76.2827 47.0891C76.2827 65.5846 61.112 80.5832 42.3919 80.5832V81.0832C61.3827 81.0832 76.7827 65.8663 76.7827 47.0891H76.2827ZM42.3919 13.595C61.112 13.595 76.2827 28.5936 76.2827 47.0891H76.7827C76.7827 28.3119 61.3827 13.095 42.3919 13.095V13.595ZM8.50104 47.0793C8.50638 28.5883 23.675 13.595 42.3919 13.595V13.095C23.4044 13.095 8.00646 28.3066 8.00104 47.0792L8.50104 47.0793Z" fill="#CDA580"/>
</g>
</svg>
