<svg width="24" height="24" viewBox="0 0 24 24" fill="none" xmlns="http://www.w3.org/2000/svg">
<g id="&#236;&#149;&#132;&#236;&#157;&#180;&#236;&#189;&#152;/&#236;&#150;&#184;&#236;&#150;&#180;&#236;&#132;&#160;&#237;&#131;&#157;">
<path id="Vector" d="M12.2969 23C18.372 23 23.2969 18.0751 23.2969 12C23.2969 5.92487 18.372 1 12.2969 1C6.22174 1 1.29688 5.92487 1.29688 12C1.29688 18.0751 6.22174 23 12.2969 23Z" stroke="#CDA580" stroke-width="1.12" stroke-linecap="round" stroke-linejoin="round"/>
<path id="Vector_2" d="M2.00098 8.15732H22.6076M2.00098 15.8573H22.6076M11.197 22.956C11.197 22.956 7.89698 18.6147 7.89698 12.0147C7.89698 5.41465 11.197 1.05865 11.197 1.05865M13.397 1.05865C13.397 1.05865 16.697 5.39999 16.697 12C16.697 18.6 13.397 22.9413 13.397 22.9413" stroke="#CDA580" stroke-width="1.12" stroke-linecap="round" stroke-linejoin="round"/>
</g>
</svg>
