<svg width="32" height="16" viewBox="0 0 32 16" fill="none" xmlns="http://www.w3.org/2000/svg">
<path id="Line 7" d="M0.292893 7.14812C-0.0976311 7.53864 -0.097631 8.17181 0.292893 8.56233L6.65685 14.9263C7.04738 15.3168 7.68054 15.3168 8.07107 14.9263C8.46159 14.5358 8.46159 13.9026 8.07107 13.5121L2.41421 7.85522L8.07107 2.19837C8.46159 1.80785 8.46159 1.17468 8.07107 0.784156C7.68054 0.393632 7.04738 0.393632 6.65685 0.784156L0.292893 7.14812ZM31 8.85522C31.5523 8.85522 32 8.40751 32 7.85522C32 7.30294 31.5523 6.85522 31 6.85522L31 8.85522ZM1 8.85522L31 8.85522L31 6.85522L1 6.85522L1 8.85522Z" fill="#F5F5F5"/>
</svg>
