<svg width="32" height="16" viewBox="0 0 32 16" fill="none" xmlns="http://www.w3.org/2000/svg">
<path id="image" d="M1 6.85522C0.447715 6.85522 -4.82823e-08 7.30294 0 7.85522C4.82823e-08 8.40751 0.447715 8.85522 1 8.85522L1 6.85522ZM31.7071 8.56233C32.0976 8.1718 32.0976 7.53864 31.7071 7.14812L25.3431 0.784155C24.9526 0.39363 24.3195 0.39363 23.9289 0.784155C23.5384 1.17468 23.5384 1.80784 23.9289 2.19837L29.5858 7.85522L23.9289 13.5121C23.5384 13.9026 23.5384 14.5358 23.9289 14.9263C24.3195 15.3168 24.9526 15.3168 25.3431 14.9263L31.7071 8.56233ZM1 8.85522L31 8.85522L31 6.85522L1 6.85522L1 8.85522Z" fill="#F5F5F5"/>
</svg>
